<?xml version="1.0" encoding="UTF-8" standalone="no"?>
<svg
   width="389.99115"
   height="339.56665"
   viewBox="0 0 280 243.79697"
   class="css-1j8o68f"
   version="1.1"
   id="svg3204"
   xmlns:xlink="http://www.w3.org/1999/xlink"
   xmlns="http://www.w3.org/2000/svg"
   xmlns:svg="http://www.w3.org/2000/svg">
  <defs
     id="SvgjsDefs2554">
    <linearGradient
       id="linearGradient3763">
      <stop
         id="stop3757"
         stop-color="#51504f"
         offset="0.25259832"
         style="stop-color:#54a9a2;stop-opacity:1;" />
      <stop
         id="stop3759"
         stop-color="#939598"
         offset="0.5" />
      <stop
         id="stop3761"
         stop-color="#51504f"
         offset="1" />
    </linearGradient>
    <linearGradient
       id="SvgjsLinearGradient2563">
      <stop
         id="SvgjsStop2564"
         stop-color="#51504f"
         offset="0" />
      <stop
         id="SvgjsStop2565"
         stop-color="#939598"
         offset="0.5" />
      <stop
         id="SvgjsStop2566"
         stop-color="#51504f"
         offset="1" />
    </linearGradient>
    <linearGradient
       xlink:href="#SvgjsLinearGradient2563"
       id="linearGradient3711"
       gradientTransform="scale(1.3899642,0.71944297)"
       x1="94.966469"
       y1="174.16252"
       x2="486.99326"
       y2="174.16252"
       gradientUnits="userSpaceOnUse" />
    <linearGradient
       xlink:href="#SvgjsLinearGradient2563"
       id="linearGradient3713"
       gradientTransform="scale(0.65719602,1.521616)"
       x1="939.14142"
       y1="240.99377"
       x2="956.03137"
       y2="240.99377"
       gradientUnits="userSpaceOnUse" />
    <linearGradient
       xlink:href="#SvgjsLinearGradient2563"
       id="linearGradient3715"
       gradientTransform="scale(1.2001838,0.83320573)"
       x1="317.1427"
       y1="168.30122"
       x2="485.81766"
       y2="168.30122"
       gradientUnits="userSpaceOnUse" />
    <linearGradient
       xlink:href="#SvgjsLinearGradient2563"
       id="linearGradient3717"
       gradientTransform="scale(2.0358821,0.49118759)"
       x1="273.78796"
       y1="801.52679"
       x2="301.83478"
       y2="801.52679"
       gradientUnits="userSpaceOnUse" />
    <linearGradient
       xlink:href="#SvgjsLinearGradient2563"
       id="linearGradient3719"
       gradientTransform="scale(1.5285446,0.65421709)"
       x1="395.99759"
       y1="950.44904"
       x2="412.35303"
       y2="950.44904"
       gradientUnits="userSpaceOnUse" />
    <linearGradient
       xlink:href="#SvgjsLinearGradient2563"
       id="linearGradient3721"
       gradientTransform="scale(0.83099394,1.2033782)"
       x1="862.27313"
       y1="319.45862"
       x2="1030.4172"
       y2="319.45862"
       gradientUnits="userSpaceOnUse" />
    <linearGradient
       xlink:href="#SvgjsLinearGradient2563"
       id="linearGradient3723"
       x1="597"
       y1="616.09998"
       x2="597.20001"
       y2="616.09998"
       gradientUnits="userSpaceOnUse" />
    <linearGradient
       xlink:href="#SvgjsLinearGradient2563"
       id="linearGradient3725"
       x1="597.20001"
       y1="616.20001"
       x2="598"
       y2="616.20001"
       gradientUnits="userSpaceOnUse" />
    <linearGradient
       xlink:href="#SvgjsLinearGradient2563"
       id="linearGradient3727"
       gradientTransform="scale(0.50314542,1.987497)"
       x1="1172.6821"
       y1="282.76773"
       x2="1199.8519"
       y2="282.76773"
       gradientUnits="userSpaceOnUse" />
    <linearGradient
       xlink:href="#SvgjsLinearGradient2563"
       id="linearGradient3729"
       gradientTransform="scale(1.0444659,0.95742711)"
       x1="572.63715"
       y1="644.53992"
       x2="573.78607"
       y2="644.53992"
       gradientUnits="userSpaceOnUse" />
    <linearGradient
       xlink:href="#SvgjsLinearGradient2563"
       id="linearGradient3731"
       gradientTransform="scale(0.64825417,1.5426048)"
       x1="563.05078"
       y1="396.01846"
       x2="579.71088"
       y2="396.01846"
       gradientUnits="userSpaceOnUse" />
    <linearGradient
       xlink:href="#SvgjsLinearGradient2563"
       id="linearGradient3733"
       gradientTransform="scale(1.2061139,0.8291091)"
       x1="341.29886"
       y1="870.62762"
       x2="509.20123"
       y2="870.62762"
       gradientUnits="userSpaceOnUse" />
    <linearGradient
       xlink:href="#SvgjsLinearGradient2563"
       id="linearGradient3735"
       gradientTransform="scale(2.0150649,0.49626192)"
       x1="189.02617"
       y1="1200.0787"
       x2="216.12207"
       y2="1200.0787"
       gradientUnits="userSpaceOnUse" />
    <linearGradient
       xlink:href="#SvgjsLinearGradient2563"
       id="linearGradient3737"
       gradientTransform="scale(1.5515822,0.64450339)"
       x1="231.82787"
       y1="575.01636"
       x2="248.58496"
       y2="575.01636"
       gradientUnits="userSpaceOnUse" />
    <linearGradient
       xlink:href="#SvgjsLinearGradient2563"
       id="linearGradient3739"
       gradientTransform="scale(0.82747296,1.2084987)"
       x1="164.84227"
       y1="345.8858"
       x2="332.40137"
       y2="345.8858"
       gradientUnits="userSpaceOnUse" />
    <linearGradient
       xlink:href="#SvgjsLinearGradient2563"
       id="linearGradient3741"
       gradientTransform="scale(0.71262362,1.4032653)"
       x1="828.16022"
       y1="94.778938"
       x2="1218.4553"
       y2="94.778938"
       gradientUnits="userSpaceOnUse" />
    <linearGradient
       xlink:href="#SvgjsLinearGradient2563"
       id="linearGradient3743"
       gradientTransform="scale(0.71262362,1.4032653)"
       x1="828.16022"
       y1="94.778938"
       x2="1218.4553"
       y2="94.778938"
       gradientUnits="userSpaceOnUse" />
    <linearGradient
       xlink:href="#SvgjsLinearGradient2563"
       id="linearGradient3745"
       gradientTransform="scale(0.70016961,1.4282254)"
       x1="188.52576"
       y1="226.70564"
       x2="572.9281"
       y2="226.70564"
       gradientUnits="userSpaceOnUse" />
    <linearGradient
       xlink:href="#SvgjsLinearGradient2563"
       id="linearGradient3747"
       gradientTransform="scale(0.70016961,1.4282254)"
       x1="188.52576"
       y1="226.70564"
       x2="572.9281"
       y2="226.70564"
       gradientUnits="userSpaceOnUse" />
    <linearGradient
       xlink:href="#SvgjsLinearGradient2563"
       id="linearGradient3749"
       gradientTransform="scale(1.399717,0.71443014)"
       x1="226.88164"
       y1="833.80353"
       x2="617.41052"
       y2="833.80353"
       gradientUnits="userSpaceOnUse" />
    <linearGradient
       xlink:href="#SvgjsLinearGradient2563"
       id="linearGradient3751"
       gradientTransform="scale(1.399717,0.71443014)"
       x1="226.88164"
       y1="833.80353"
       x2="617.41052"
       y2="833.80353"
       gradientUnits="userSpaceOnUse" />
    <linearGradient
       xlink:href="#SvgjsLinearGradient2563"
       id="linearGradient3753"
       gradientTransform="scale(0.99122114,1.0088566)"
       x1="133.16907"
       y1="124.20001"
       x2="875.99017"
       y2="124.20001"
       gradientUnits="userSpaceOnUse" />
    <linearGradient
       xlink:href="#linearGradient3763"
       id="linearGradient3755"
       gradientTransform="scale(0.99122114,1.0088566)"
       x1="133.16907"
       y1="124.20001"
       x2="875.99017"
       y2="124.20001"
       gradientUnits="userSpaceOnUse" />
    <filter
       style="color-interpolation-filters:sRGB"
       id="filter3769"
       x="-0.0045057638"
       y="-0.0044269999"
       width="1.0090115"
       height="1.008854">
      <feGaussianBlur
         stdDeviation="1.3823308"
         id="feGaussianBlur3771" />
    </filter>
  </defs>
  <g
     id="SvgjsG2555"
     featurekey="symbolFeature-0"
     transform="matrix(0.096326,0,0,0.09132757,90.629706,12.431194)"
     fill="url(#SvgjsLinearGradient2563)"
     style="opacity:1;fill:url(#linearGradient3755);filter:url(#filter3769)">
    <g
       id="g3192"
       style="fill:url(#linearGradient3753)">
      <path
         d="M 661.8,226 637,215.3 c -12.6,-5.4 -27.4,0.4 -32.8,13 L 567.3,314 269.8,185.9 c -4.2,-34.1 -33.4,-60.6 -68.6,-60.6 -38.1,0 -69.2,31 -69.2,69.1 0,38.1 31,69.2 69.2,69.2 12.3,0 23.9,-3.2 33.9,-8.9 l 322.4,138.9 27.1,11.7 c 10.8,4.7 23.3,1 30,-8.2 1.1,-1.5 2,-3.1 2.7,-4.8 l 11.1,-25.7 0.2,-0.4 46.3,-107.5 c 5.4,-12.5 -0.5,-27.2 -13.1,-32.7 z m -460.6,5.9 c -2.4,0 -4.7,-0.2 -7,-0.7 -17.3,-3.3 -30.4,-18.5 -30.4,-36.8 0,-20.6 16.8,-37.4 37.4,-37.4 11.2,0 21.2,4.9 28,12.7 5.8,6.6 9.4,15.3 9.4,24.8 0,20.6 -16.8,37.4 -37.4,37.4 z"
         id="path3150"
         style="fill:url(#linearGradient3711)" />
      <path
         d="m 628.3,366.7 c -0.1,0.3 -0.2,0.5 -0.3,0.8 l -10.7,24.8 c 0,0 0,0.1 -0.1,0.1 z"
         id="path3152"
         style="fill:url(#linearGradient3713)" />
      <path
         d="M 545.3,279.8 387.9,212 c -6.1,-2.6 -8.9,-9.7 -6.3,-15.8 l 21,-48.7 c 2.6,-6.1 9.7,-8.9 15.8,-6.3 L 575.8,209 c 6.1,2.6 8.9,9.7 6.3,15.8 l -21,48.7 c -2.6,6.1 -9.7,8.9 -15.8,6.3 z"
         id="path3154"
         style="fill:url(#linearGradient3715)" />
      <path
         d="m 614.5,397.2 c -6.7,9.2 -19.2,12.9 -30.1,8.3 l -24.8,-10.7 c -0.7,-0.3 -1.5,-0.7 -2.2,-1.1 l 27.1,11.7 c 10.9,4.6 23.3,1 30,-8.2 z"
         id="path3156"
         style="fill:url(#linearGradient3717)" />
      <path
         d="m 630.3,632.5 -24.9,-10.6 c 0,0 -0.1,0 -0.1,-0.1 z"
         id="path3158"
         style="fill:url(#linearGradient3719)" />
      <path
         d="m 717.5,549.4 67.1,-157.7 c 2.6,-6.1 9.7,-8.9 15.7,-6.3 l 48.7,20.7 c 6.1,2.6 8.9,9.7 6.3,15.7 l -67.1,157.7 c -2.6,6.1 -9.7,8.9 -15.7,6.3 l -48.7,-20.7 c -6,-2.6 -8.9,-9.7 -6.3,-15.7 z"
         id="path3160"
         style="fill:url(#linearGradient3721)" />
      <path
         d="m 597,616.1 c 0.1,0.1 0.1,0.1 0.2,0.2 0,-0.1 -0.1,-0.1 -0.2,-0.2 0.1,0 0.1,0 0,0 z"
         id="path3162"
         style="fill:url(#linearGradient3723)" />
      <path
         d="m 597.2,616.2 c 0.3,0.3 0.5,0.6 0.8,0.8 -0.3,-0.2 -0.5,-0.5 -0.8,-0.8 z"
         id="path3164"
         style="fill:url(#linearGradient3725)" />
      <path
         d="m 596.1,615 c 0.3,0.4 0.6,0.7 0.9,1 -6.7,-7 -9,-17.6 -5,-27 l 10.6,-24.9 c 0.3,-0.7 0.7,-1.4 1.1,-2.1 l -11.5,27.1 c -1.5,3.6 -2.2,7.4 -2,11.1 0,0.3 0,0.5 0.1,0.7 0,0.3 0,0.5 0.1,0.8 0,0 0,0.1 0,0.1 0.1,0.4 0.1,0.9 0.2,1.3 0.1,0.4 0.1,0.8 0.2,1.2 0,0.2 0.1,0.4 0.2,0.6 0.1,0.4 0.2,0.7 0.3,1 0.1,0.4 0.2,0.8 0.4,1.2 0,0.2 0.1,0.3 0.2,0.5 0.1,0.4 0.3,0.8 0.5,1.1 0.2,0.4 0.3,0.7 0.5,1.1 0.1,0.2 0.2,0.5 0.4,0.7 0,0.1 0.1,0.2 0.1,0.3 0.2,0.3 0.3,0.6 0.5,0.8 0.1,0.3 0.3,0.5 0.5,0.7 0.2,0.3 0.4,0.7 0.7,1 0.2,0.2 0.3,0.5 0.5,0.7 0,0.4 0.2,0.7 0.5,1 z"
         id="path3166"
         style="fill:url(#linearGradient3727)" />
      <path
         d="m 599.3,618.2 c -0.4,-0.4 -0.8,-0.7 -1.2,-1.1 0.3,0.3 0.7,0.7 1.2,1.1 z"
         id="path3168"
         style="fill:url(#linearGradient3729)" />
      <path
         d="M 375.8,610.9 365,636.6 c 0.1,-0.2 0.2,-0.5 0.3,-0.7 L 375.8,611 c 0,-0.1 0,-0.1 0,-0.1 z"
         id="path3170"
         style="fill:url(#linearGradient3731)" />
      <path
         d="m 448.8,722.8 158,66.4 c 6.1,2.6 9,9.6 6.4,15.7 l -20.5,48.8 c -2.6,6.1 -9.6,9 -15.7,6.4 L 419,793.7 c -6.1,-2.6 -9,-9.6 -6.4,-15.7 l 20.5,-48.8 c 2.5,-6.1 9.6,-9 15.7,-6.4 z"
         id="path3172"
         style="fill:url(#linearGradient3733)" />
      <path
         d="m 435.5,609 -27.1,-11.4 c -9.7,-4 -20.6,-1.5 -27.5,5.6 6.9,-7.2 17.9,-9.8 27.6,-5.7 l 24.9,10.5 c 0.8,0.3 1.5,0.6 2.1,1 z"
         id="path3174"
         style="fill:url(#linearGradient3735)" />
      <path
         d="m 385.7,381.4 -26,-10.8 c 0.3,0.1 0.6,0.2 0.9,0.4 l 25,10.4 c 0.1,-0.1 0.1,-0.1 0.1,0 z"
         id="path3176"
         style="fill:url(#linearGradient3737)" />
      <path
         d="m 274.1,454.8 -65.7,158.3 c -2.5,6.1 -9.6,9 -15.7,6.5 l -48.9,-20.3 c -6.1,-2.5 -9,-9.6 -6.5,-15.7 L 203,425.4 c 2.5,-6.1 9.6,-9 15.7,-6.5 l 48.9,20.3 c 6.2,2.5 9.1,9.5 6.5,15.6 z"
         id="path3178"
         style="fill:url(#linearGradient3739)" />
      <g
         id="g3182"
         style="fill:url(#linearGradient3743)">
        <path
           d="m 798.8,133 c -38.1,0 -69.2,31 -69.2,69.1 0,13.9 4.1,26.8 11.2,37.6 L 603.7,562 592.2,589.1 c -1.5,3.6 -2.2,7.4 -2,11.1 0,0.2 0,0.5 0.1,0.7 0,0.3 0,0.5 0.1,0.8 0,0 0,0.1 0,0.1 0.1,0.4 0.1,0.9 0.2,1.3 0.1,0.4 0.1,0.8 0.2,1.2 0,0.2 0.1,0.4 0.2,0.6 0.1,0.4 0.2,0.7 0.3,1 0.1,0.4 0.2,0.8 0.4,1.2 0,0.2 0.1,0.3 0.2,0.5 0.1,0.4 0.3,0.8 0.5,1.1 0.2,0.4 0.3,0.7 0.5,1.1 0.1,0.2 0.2,0.5 0.4,0.7 0,0.1 0.1,0.2 0.1,0.3 0.2,0.3 0.3,0.6 0.5,0.8 0.1,0.3 0.3,0.5 0.5,0.7 0.2,0.3 0.4,0.7 0.7,1 0.2,0.2 0.3,0.5 0.5,0.7 0.3,0.3 0.5,0.6 0.8,1 0.2,0.2 0.3,0.4 0.5,0.6 0.1,0.1 0.1,0.1 0.2,0.2 0.1,0.1 0.1,0.1 0.2,0.2 0.1,0.1 0.1,0.1 0.1,0.1 0.7,0.7 1.4,1.4 2.2,2 0,0 0,0 0,0 0.4,0.3 0.8,0.6 1.2,0.9 1.5,1.1 3.1,2 4.8,2.7 l 25,10.7 1.2,0.5 107.7,45.8 c 12.6,5.4 27.4,-0.6 32.7,-13.2 l 10.6,-24.9 c 5.4,-12.6 -0.6,-27.3 -13.2,-32.7 L 683.7,571.4 811.9,270.1 c 32.1,-6 56.4,-34.2 56.4,-68 C 868,164 837,133 798.8,133 Z m 27.3,94.7 c -6.8,7.3 -16.5,11.8 -27.3,11.8 -20.6,0 -37.4,-16.8 -37.4,-37.4 0,-0.7 0,-1.5 0.1,-2.2 v 0 c 1.1,-19.6 17.4,-35.2 37.4,-35.2 20.6,0 37.4,16.8 37.4,37.4 0,9.9 -3.9,18.9 -10.2,25.6 z"
           id="path3180"
           style="fill:url(#linearGradient3741)" />
      </g>
      <g
         id="g3186"
         style="fill:url(#linearGradient3747)">
        <path
           d="m 392.1,385.2 c -1.9,-1.6 -4,-2.9 -6.3,-3.8 l -26,-10.8 -0.3,-0.1 -108.1,-44.8 c -12.7,-5.3 -27.4,0.8 -32.6,13.5 l -10.4,25 c -5.3,12.7 0.8,27.4 13.5,32.6 l 86.2,35.8 -126.4,304.6 c -28.7,8.4 -49.7,35 -49.7,66.4 0,38.1 31,69.2 69.2,69.2 38.1,0 69.2,-31 69.2,-69.2 0,-16.2 -5.6,-31.1 -15,-42.9 L 387.9,441.2 c 0.4,-0.7 0.7,-1.4 1,-2.1 l 10.4,-25 c 4.2,-10.4 1,-22.1 -7.2,-28.9 z M 201.2,841 c -20.6,0 -37.4,-16.8 -37.4,-37.4 0,-7.6 2.3,-14.6 6.1,-20.5 6.7,-10.2 18.2,-16.9 31.3,-16.9 19.3,0 35.2,14.7 37.2,33.5 v 0 c 0.1,1.3 0.2,2.6 0.2,3.9 0,20.6 -16.8,37.4 -37.4,37.4 z"
           id="path3184"
           style="fill:url(#linearGradient3745)" />
      </g>
      <g
         id="g3190"
         style="fill:url(#linearGradient3751)">
        <path
           d="m 795,736.3 c -12.5,0 -24.3,3.4 -34.5,9.2 L 435.5,609 408.4,597.6 c -9.7,-4 -20.6,-1.5 -27.5,5.6 -2.1,2.2 -3.9,4.7 -5.1,7.7 L 365,636.6 319.5,745 c -5.3,12.7 0.7,27.4 13.3,32.7 l 24.9,10.5 c 12.7,5.3 27.4,-0.7 32.7,-13.3 l 36.2,-86.1 299.9,126 c 4.5,33.8 33.5,59.9 68.5,59.9 38.1,0 69.2,-31 69.2,-69.2 0,-38.1 -31,-69.2 -69.2,-69.2 z m 0,106.6 c -11.3,0 -21.4,-5 -28.2,-12.9 v 0 c -5.7,-6.6 -9.2,-15.2 -9.2,-24.5 0,-20.6 16.8,-37.4 37.4,-37.4 1.9,0 3.7,0.1 5.6,0.4 18,2.7 31.9,18.3 31.9,37 0,20.6 -16.8,37.4 -37.5,37.4 z"
           id="path3188"
           style="fill:url(#linearGradient3749)" />
      </g>
    </g>
  </g>
</svg>
