<?xml version="1.0" encoding="UTF-8" standalone="no"?>
<svg
   width="32px"
   height="32px"
   viewBox="0 0 32 32"
   version="1.1"
   id="svg4"
   sodipodi:docname="r.svg"
   inkscape:version="1.2.1 (9c6d41e410, 2022-07-14)"
   xmlns:inkscape="http://www.inkscape.org/namespaces/inkscape"
   xmlns:sodipodi="http://sodipodi.sourceforge.net/DTD/sodipodi-0.dtd"
   xmlns="http://www.w3.org/2000/svg"
   xmlns:svg="http://www.w3.org/2000/svg">
  <defs
     id="defs8" />
  <sodipodi:namedview
     id="namedview6"
     pagecolor="#ffffff"
     bordercolor="#000000"
     borderopacity="0.25"
     inkscape:showpageshadow="2"
     inkscape:pageopacity="0.0"
     inkscape:pagecheckerboard="0"
     inkscape:deskcolor="#d1d1d1"
     showgrid="false"
     inkscape:zoom="26.28125"
     inkscape:cx="16"
     inkscape:cy="16"
     inkscape:window-width="1854"
     inkscape:window-height="1021"
     inkscape:window-x="66"
     inkscape:window-y="27"
     inkscape:window-maximized="1"
     inkscape:current-layer="svg4" />
  <path
     d="M16 25.093c-8.839 0-16-4.796-16-10.719 0-5.916 7.161-10.713 16-10.713s16 4.797 16 10.713c0 5.923-7.161 10.719-16 10.719zM18.448 7.849c-6.713 0-12.161 3.281-12.161 7.328s5.448 7.328 12.161 7.328c6.713 0 11.677-2.245 11.677-7.328 0-5.084-4.959-7.328-11.677-7.328zM24.364 20.26c0.527 0.156 1.037 0.349 1.537 0.579 0.287 0.14 0.547 0.328 0.776 0.552 0.14 0.151 0.26 0.323 0.353 0.511l3.819 6.437h-6.172l-2.885-5.417c-0.265-0.473-0.584-0.911-0.953-1.307-0.188-0.208-0.453-0.333-0.735-0.333h-1.464v7.052l-5.457 0.005v-18.021h10.963c0 0 4.991 0.089 4.991 4.839 0.009 2.693-2.079 4.932-4.772 5.104zM21.995 14.224h-3.307v3.063h3.307c0.86 0.011 1.557-0.699 1.532-1.557 0.047-0.865-0.672-1.568-1.532-1.505z"
     id="path2"
     style="fill:#000080" />
</svg>
